<svg xmlns="http://www.w3.org/2000/svg" width="1280" height="720" viewBox="0 0 1280 720"><defs><linearGradient id="g0" x2="1" y2="1"><stop stop-color="#92d1e7"/><stop offset="1" stop-color="#4e1cab"/></linearGradient><linearGradient id="g1" x2="1" y2="1"><stop stop-color="#9f92e7"/><stop offset="1" stop-color="#ab1c8a"/></linearGradient><linearGradient id="g2" x2="1" y2="1"><stop stop-color="#e792e4"/><stop offset="1" stop-color="#ab2d1c"/></linearGradient><linearGradient id="g3" x2="1" y2="1"><stop stop-color="#e79299"/><stop offset="1" stop-color="#abab1c"/></linearGradient><linearGradient id="g4" x2="1" y2="1"><stop stop-color="#e7d692"/><stop offset="1" stop-color="#2dab1c"/></linearGradient><linearGradient id="g5" x2="1" y2="1"><stop stop-color="#ade792"/><stop offset="1" stop-color="#1cab8a"/></linearGradient></defs><rect width="100%" height="100%" fill="#d7d2c8"/><g opacity="0.32"><rect x="1076.965292" y="368.29965400000003" width="130.824288" height="87.21619199999999" rx="14" fill="#f1ede3"/><rect x="1084.965292" y="376.29965400000003" width="114.824288" height="71.21619199999999" rx="9" fill="url(#g0)"/><path d="M 1087.43123504 434.58395992000004 C 1113.59609264 399.69748312,1144.9939217600001 445.92206488,1197.3236369600002 390.97586392000005" fill="none" stroke="#fff" stroke-width="2"/><circle cx="1176.39175088" cy="388.35937816" r="4.79689056" fill="#fff" opacity=".9"/><rect x="1087.43123504" y="381.38208280000003" width="52.3297152" height="5.6690524799999995" fill="#172532" opacity=".82"/><text x="1087.43123504" y="446.79422680000005" font-family="monospace" font-size="10" font-weight="700" fill="#fff">FINALE</text></g><g opacity="0.390391"><rect x="874.8291598000001" y="458.5226742" width="140.27610239999998" height="78.9053076" rx="14" fill="#f1ede3"/><rect x="882.8291598000001" y="466.5226742" width="124.27610239999998" height="62.9053076" rx="9" fill="url(#g1)"/><path d="M 886.0512479920001 518.490707976 C 914.1064684720001 486.928584936,947.7727330480001 528.748397964,1003.8831740080001 479.038054176" fill="none" stroke="#fff" stroke-width="2"/><circle cx="981.4389976240001" cy="476.67089494799995" r="4.339791918" fill="#fff" opacity=".9"/><rect x="886.0512479920001" y="470.35847034" width="56.11044096" height="5.1288449940000005" fill="#172532" opacity=".82"/><text x="886.0512479920001" y="529.53745104" font-family="monospace" font-size="10" font-weight="700" fill="#fff">REAR</text></g><g opacity="0.390391"><rect x="767.2721738" y="187.61502040000002" width="140.27610239999998" height="187.0348032" rx="14" fill="#f1ede3"/><rect x="775.2721738" y="195.61502040000002" width="124.27610239999998" height="171.0348032" rx="9" fill="url(#g2)"/><path d="M 778.494261992 329.761470832 C 806.549482472 254.947549552,840.215747048 354.075995248,896.326188008 236.24406923200002" fill="none" stroke="#fff" stroke-width="2.5249698431999996"/><circle cx="873.882011624" cy="230.63302513600001" r="7.715185631999999" fill="#fff" opacity=".9"/><rect x="778.494261992" y="215.67024088000002" width="56.11044096" height="12.157262208" fill="#172532" opacity=".82"/><text x="778.494261992" y="355.94634328000006" font-family="monospace" font-size="10" font-weight="700" fill="#fff">SHOULDER</text></g><g opacity="0.929609"><rect x="360.6052794" y="371.2830824" width="163.9689912" height="163.9689912" rx="14" fill="#f1ede3"/><rect x="368.6052794" y="379.2830824" width="147.9689912" height="147.9689912" rx="9" fill="url(#g3)"/><path d="M 373.722798696 495.89951571200004 C 406.516596936 430.31191923200004,445.86915482399996 517.215484568,511.456751304 413.91502011200004" fill="none" stroke="#fff" stroke-width="2.9514418416"/><circle cx="485.221712712" cy="408.995950376" r="9.018294516000001" fill="#fff" opacity=".9"/><rect x="373.722798696" y="395.87843108000004" width="65.58759648" height="10.657984428" fill="#172532" opacity=".82"/><text x="373.722798696" y="518.85517448" font-family="monospace" font-size="10" font-weight="700" fill="#fff">APPROACH</text></g><g opacity="0.929609"><rect x="253.04829339999998" y="202.12153594265098" width="163.9689912" height="68.606272114698" rx="14" fill="#f1ede3"/><rect x="261.0482934" y="210.12153594265098" width="147.9689912" height="52.606272114698" rx="9" fill="url(#g4)"/><path d="M 266.165812696 254.26230274982146 C 298.959610936 226.81979390394227,338.31216882399997 263.1811181247322,403.89976530399997 219.95916669247245" fill="none" stroke="#fff" stroke-width="2"/><circle cx="377.664726712" cy="217.90097852903153" r="3.77334496630839" fill="#fff" opacity=".9"/><rect x="266.165812696" y="212.41247675985568" width="65.58759648" height="4.4594076874553705" fill="#172532" opacity=".82"/><text x="266.165812696" y="263.8671808458792" font-family="monospace" font-size="10" font-weight="700" fill="#fff">DEPART</text></g><g opacity="1"><rect x="48.07572480000002" y="210.558701" width="179.0936784" height="223.867098" rx="14" fill="#f1ede3"/><rect x="56.07572480000002" y="218.558701" width="163.0936784" height="207.867098" rx="9" fill="url(#g5)"/><path d="M 62.40321907200001 380.69769548 C 98.22195475200002 291.15085628,141.204437568 409.80041822,212.841908928 268.76414648" fill="none" stroke="#fff" stroke-width="3.2236862111999995"/><circle cx="184.18692038400002" cy="262.04813354000004" r="9.850152311999999" fill="#fff" opacity=".9"/><rect x="62.40321907200001" y="244.13876570000002" width="71.63747135999999" height="14.55136137" fill="#172532" opacity=".82"/><text x="62.40321907200001" y="412.03908920000003" font-family="monospace" font-size="10" font-weight="700" fill="#fff">FEATURE</text></g></svg>