<svg xmlns="http://www.w3.org/2000/svg" width="1280" height="720" viewBox="0 0 1280 720"><defs><linearGradient id="g0" x2="1" y2="1"><stop stop-color="#92d1e7"/><stop offset="1" stop-color="#4e1cab"/></linearGradient><linearGradient id="g1" x2="1" y2="1"><stop stop-color="#9f92e7"/><stop offset="1" stop-color="#ab1c8a"/></linearGradient><linearGradient id="g2" x2="1" y2="1"><stop stop-color="#e792e4"/><stop offset="1" stop-color="#ab2d1c"/></linearGradient><linearGradient id="g3" x2="1" y2="1"><stop stop-color="#e79299"/><stop offset="1" stop-color="#abab1c"/></linearGradient><linearGradient id="g4" x2="1" y2="1"><stop stop-color="#e7d692"/><stop offset="1" stop-color="#2dab1c"/></linearGradient><linearGradient id="g5" x2="1" y2="1"><stop stop-color="#ade792"/><stop offset="1" stop-color="#1cab8a"/></linearGradient></defs><rect width="100%" height="100%" fill="#d7d2c8"/><g opacity="0.32"><rect x="1076.965292" y="330.14257000000003" width="130.824288" height="163.53036" rx="14" fill="#f1ede3"/><rect x="1084.965292" y="338.14257000000003" width="114.824288" height="147.53036" rx="9" fill="url(#g0)"/><path d="M 1087.43123504 454.42564360000006 C 1113.59609264 389.01349960000005,1144.9939217600001 475.68459040000005,1197.3236369600002 372.6604636" fill="none" stroke="#fff" stroke-width="2.3548371839999995"/><circle cx="1176.39175088" cy="367.75455280000006" r="7.195335839999999" fill="#fff" opacity=".9"/><rect x="1087.43123504" y="354.67212400000005" width="52.3297152" height="10.6294734" fill="#172532" opacity=".82"/><text x="1087.43123504" y="477.31989400000003" font-family="monospace" font-size="10" font-weight="700" fill="#fff">FEATURE</text></g><g opacity="0.390391"><rect x="767.2721738" y="210.9943708" width="140.27610239999998" height="140.27610239999998" rx="14" fill="#f1ede3"/><rect x="775.2721738" y="218.9943708" width="124.27610239999998" height="124.27610239999998" rx="9" fill="url(#g1)"/><path d="M 778.494261992 317.604208624 C 806.549482472 261.493767664,840.215747048 335.840101936,896.326188008 247.46615742400002" fill="none" stroke="#fff" stroke-width="2.5249698431999996"/><circle cx="873.882011624" cy="243.25787435200002" r="7.715185631999999" fill="#fff" opacity=".9"/><rect x="778.494261992" y="232.03578616000001" width="56.11044096" height="9.117946655999999" fill="#172532" opacity=".82"/><text x="778.494261992" y="337.24286296" font-family="monospace" font-size="10" font-weight="700" fill="#fff">APPROACH</text></g><g opacity="0.390391"><rect x="874.8291598000001" y="468.628863214152" width="140.27610239999998" height="58.692929571696006" rx="14" fill="#f1ede3"/><rect x="882.8291598000001" y="476.628863214152" width="124.27610239999998" height="42.692929571696006" rx="9" fill="url(#g2)"/><path d="M 886.0512479920001 513.2354896886409 C 914.1064684720001 489.7583178599625,947.7727330480001 520.8655705329614,1003.8831740080001 483.8890249027929" fill="none" stroke="#fff" stroke-width="2"/><circle cx="981.4389976240001" cy="482.12823701564207" r="3.2281111264432805" fill="#fff" opacity=".9"/><rect x="886.0512479920001" y="477.43280264990636" width="56.11044096" height="3.8150404221602403" fill="#172532" opacity=".82"/><text x="886.0512479920001" y="521.4524998286784" font-family="monospace" font-size="10" font-weight="700" fill="#fff">DEPART</text></g><g opacity="0.929609"><rect x="253.04829339999998" y="190.30839322499997" width="163.9689912" height="92.23255755" rx="14" fill="#f1ede3"/><rect x="261.0482934" y="198.30839322499997" width="147.9689912" height="76.23255755" rx="9" fill="url(#g3)"/><path d="M 266.165812696 260.40513696299996 C 298.959610936 223.51211394299997,338.31216882399997 272.3953694445,403.89976530399997 214.28885818799998" fill="none" stroke="#fff" stroke-width="2"/><circle cx="377.664726712" cy="211.52188146149996" r="5.072790665249999" fill="#fff" opacity=".9"/><rect x="266.165812696" y="204.14327685749998" width="65.58759648" height="5.99511624075" fill="#172532" opacity=".82"/><text x="266.165812696" y="273.31769502" font-family="monospace" font-size="10" font-weight="700" fill="#fff">REAR</text></g><g opacity="0.929609"><rect x="360.6052794" y="343.9549172" width="163.9689912" height="218.6253216" rx="14" fill="#f1ede3"/><rect x="368.6052794" y="351.9549172" width="147.9689912" height="202.6253216" rx="9" fill="url(#g4)"/><path d="M 373.722798696 510.110161616 C 406.516596936 422.660032976,445.86915482399996 538.531453424,511.456751304 400.797500816" fill="none" stroke="#fff" stroke-width="2.9514418416"/><circle cx="485.221712712" cy="394.23874116800005" r="9.018294516000001" fill="#fff" opacity=".9"/><rect x="373.722798696" y="376.74871544" width="65.58759648" height="14.210645904000001" fill="#172532" opacity=".82"/><text x="373.722798696" y="540.71770664" font-family="monospace" font-size="10" font-weight="700" fill="#fff">SHOULDER</text></g><g opacity="1"><rect x="48.07572480000002" y="262.79435720000004" width="179.0936784" height="119.3957856" rx="14" fill="#f1ede3"/><rect x="56.07572480000002" y="270.79435720000004" width="163.0936784" height="103.3957856" rx="9" fill="url(#g5)"/><path d="M 62.40321907200001 353.53515425600006 C 98.22195475200002 305.77684001600005,141.204437568 369.056606384,212.841908928 293.837261456" fill="none" stroke="#fff" stroke-width="2.1491241407999997"/><circle cx="184.18692038400002" cy="290.25538788800003" r="6.566768208" fill="#fff" opacity=".9"/><rect x="62.40321907200001" y="280.70372504000005" width="71.63747135999999" height="7.760726064" fill="#172532" opacity=".82"/><text x="62.40321907200001" y="370.25056424" font-family="monospace" font-size="10" font-weight="700" fill="#fff">FINALE</text></g></svg>