<svg xmlns="http://www.w3.org/2000/svg" width="1280" height="720" viewBox="0 0 1280 720"><defs><linearGradient id="g0"><stop stop-color="#88b0e7"/><stop offset="1" stop-color="#6b20b6"/></linearGradient><linearGradient id="g1"><stop stop-color="#ab88e7"/><stop offset="1" stop-color="#b6208c"/></linearGradient><linearGradient id="g2"><stop stop-color="#e788d9"/><stop offset="1" stop-color="#b62a20"/></linearGradient><linearGradient id="g3"><stop stop-color="#e7888f"/><stop offset="1" stop-color="#b6a020"/></linearGradient><linearGradient id="g4"><stop stop-color="#e7cc88"/><stop offset="1" stop-color="#57b620"/></linearGradient><linearGradient id="g5"><stop stop-color="#b8e788"/><stop offset="1" stop-color="#20b65f"/></linearGradient><linearGradient id="g6"><stop stop-color="#88e7a3"/><stop offset="1" stop-color="#2098b6"/></linearGradient></defs><rect width="100%" height="100%" fill="#d8d2c6"/><g opacity="0.091358"><rect x="524.7077222" y="244.687048" width="118.1218896" height="147.652362" rx="14" fill="#f0ece1"/><rect x="532.7077222" y="252.687048" width="102.1218896" height="131.652362" rx="9" fill="url(#g0)"/><path d="M 538.882348952 277.17056764 C 569.594040248 250.59314248,609.755482712 311.1306109,628.6549850480001 271.26447316 L 623.930109464 353.94979588 C 590.855980376 380.52722104000003,562.5067268720001 325.8958471,538.882348952 368.71503208Z" fill="none" stroke="#fff" stroke-width="2.1261940128"/><rect x="534.1574733680001" y="271.26447316" width="51.973631424000004" height="10.335665340000002" fill="#14212c" opacity=".84"/><text x="534.1574733680001" y="377.57417380000004" font-family="monospace" font-size="10" font-weight="700" fill="#fff">SHOULDER</text></g><g opacity="0.091358"><rect x="637.1703881999999" y="293.8015364762155" width="118.1218896" height="49.423385047569" rx="14" fill="#f0ece1"/><rect x="645.1703881999999" y="301.8015364762155" width="102.1218896" height="33.423385047569" rx="9" fill="url(#g1)"/><path d="M 651.3450149519999 304.6746811866807 C 682.056706248 295.7784718781183,722.2181487119999 316.0420597476216,741.117651048 302.6977457847779 L 736.3927754639999 330.3748414114166 C 703.318646376 339.27105071997903,674.969392872 320.98439825237847,651.3450149519999 335.3171799161735Z" fill="none" stroke="#fff" stroke-width="2"/><rect x="646.620139368" y="302.6977457847779" width="51.973631424000004" height="3.4596369533298303" fill="#14212c" opacity=".84"/><text x="646.620139368" y="338.28258301902764" font-family="monospace" font-size="10" font-weight="700" fill="#fff">NEAR</text></g><g opacity="0.158098"><rect x="446.32395740000004" y="298.7877814" width="134.6507712" height="134.6507712" rx="14" fill="#f0ece1"/><rect x="454.32395740000004" y="306.7877814" width="118.65077120000001" height="118.65077120000001" rx="9" fill="url(#g2)"/><path d="M 462.48204994400004 328.41095106399996 C 497.49125045600005 304.173812248,543.272512664 359.38062843999995,564.8166360560001 323.024920216 L 559.4306052080001 398.429352088 C 521.7283892720001 422.666490904,489.4122041840001 372.84570556,462.48204994400004 411.89442920799996Z" fill="none" stroke="#fff" stroke-width="2.4237138816"/><rect x="457.096019096" y="323.024920216" width="59.246339328000005" height="9.425553984000002" fill="#14212c" opacity=".84"/><text x="457.096019096" y="419.97347548" font-family="monospace" font-size="10" font-weight="700" fill="#fff">APPROACH</text></g><g opacity="0.158098"><rect x="699.0252714" y="276.34598619999997" width="134.6507712" height="179.5343616" rx="14" fill="#f0ece1"/><rect x="707.0252714" y="284.34598619999997" width="118.65077120000001" height="163.5343616" rx="9" fill="url(#g3)"/><path d="M 715.1833639439999 315.84354575199995 C 750.1925644559999 283.52736066399996,795.973826664 357.13644891999996,817.517950056 308.66217128799997 L 812.131919208 409.201413784 C 774.429703272 441.517598872,742.113518184 375.08988508,715.1833639439999 427.154849944Z" fill="none" stroke="#fff" stroke-width="2.4237138816"/><rect x="709.797333096" y="308.66217128799997" width="59.246339328000005" height="12.567405312000002" fill="#14212c" opacity=".84"/><text x="709.797333096" y="437.92691163999996" font-family="monospace" font-size="10" font-weight="700" fill="#fff">DEPART</text></g><g opacity="0.365855"><rect x="441.81692079999993" y="344.24345695000005" width="193.71543839999998" height="108.96493409999998" rx="14" fill="#f0ece1"/><rect x="449.81692079999993" y="352.24345695000005" width="177.71543839999998" height="92.96493409999998" rx="9" fill="url(#g4)"/><path d="M 465.06277340799994 368.21574245200003 C 515.4287873919999 348.60205431400004,581.2920364479999 393.27767729500005,612.2865065919999 363.85714508800004 L 604.5378890559999 424.877508184 C 550.2975663039999 444.49119632200006,503.8058610879999 404.17417070500005,465.06277340799994 435.774001594Z" fill="none" stroke="#fff" stroke-width="2"/><rect x="457.31415587199996" y="363.85714508800004" width="85.23479289599999" height="7.627545387" fill="#14212c" opacity=".84"/><text x="457.31415587199996" y="442.31189764000004" font-family="monospace" font-size="10.654349111999998" font-weight="700" fill="#fff">FAR</text></g><g opacity="0.365855"><rect x="644.4676408" y="334.15411120000005" width="193.71543839999998" height="129.14362559999998" rx="14" fill="#f0ece1"/><rect x="652.4676408" y="342.15411120000005" width="177.71543839999998" height="113.14362559999998" rx="9" fill="url(#g5)"/><path d="M 667.713493408 362.56570883200004 C 718.079507392 339.31985622400003,783.942756448 392.26874272000003,814.937226592 357.39996380800005 L 807.188609056 429.720394144 C 752.948286304 452.966246752,706.456581088 405.18310528000006,667.713493408 442.63475670400004Z" fill="none" stroke="#fff" stroke-width="2.3245852607999993"/><rect x="659.964875872" y="357.39996380800005" width="85.23479289599999" height="9.040053792" fill="#14212c" opacity=".84"/><text x="659.964875872" y="450.38337424" font-family="monospace" font-size="10.654349111999998" font-weight="700" fill="#fff">REMOTE</text></g><g opacity="0.5"><rect x="542.5840000000001" y="230.51136" width="194.832" height="346.368" rx="14" fill="#f0ece1"/><rect x="550.5840000000001" y="238.51136" width="178.832" height="330.368" rx="9" fill="url(#g6)"/><path d="M 565.96384 306.71232 C 616.62016 244.36608,682.8630400000001 386.37696,714.0361600000001 292.8576 L 706.24288 486.82367999999997 C 651.68992 549.16992,604.93024 421.01376000000005,565.96384 521.46048Z" fill="none" stroke="#fff" stroke-width="3.5069759999999994"/><rect x="558.17056" y="292.8576" width="85.72608" height="24.24576" fill="#14212c" opacity=".84"/><text x="558.17056" y="542.24256" font-family="monospace" font-size="10.71576" font-weight="700" fill="#fff">FINALE</text></g></svg>