<svg xmlns="http://www.w3.org/2000/svg" width="1280" height="540" viewBox="0 0 1280 540"><rect width="100%" height="100%" fill="#f4f2ec"/><g transform="translate(0 0) scale(0.3333333333333333 0.3333333333333333)"><g data-id="media-05" data-z="76" data-occluded="false" transform="translate(714.24 362.1888) rotate(-1.8) scale(0.928 0.928)"><rect x="-240" y="-100.6211" width="480" height="201.2422" fill="#111"/></g><g data-id="media-04" data-z="77" data-occluded="false" transform="translate(698.88 358.0416) rotate(1.35) scale(0.946 0.946)"><rect x="-108" y="-135" width="216" height="270" fill="#111"/></g><g data-id="media-03" data-z="78" data-occluded="false" transform="translate(683.52 353.8944) rotate(-0.9) scale(0.964 0.964)"><rect x="-135" y="-135" width="270" height="270" fill="#111"/></g><g data-id="media-02" data-z="79" data-occluded="false" transform="translate(668.16 349.7472) rotate(0.45) scale(0.982 0.982)"><rect x="-75.9375" y="-135" width="151.875" height="270" fill="#111"/></g><g data-id="media-01" data-z="80" data-occluded="false" transform="translate(652.8 345.6) rotate(0) scale(1 1)"><rect x="-240" y="-135" width="480" height="270" fill="#111"/></g></g><g transform="translate(320 0) scale(0.3333333333333333 0.3333333333333333)"><g data-id="media-01" data-z="-20" data-occluded="true" transform="translate(569.0825 287.5971) rotate(0.2941) scale(0.9332 0.9332)"><rect x="-240" y="-135" width="480" height="270" fill="#111"/></g><g data-id="media-05" data-z="77" data-occluded="false" transform="translate(526.08 282.4416) rotate(1.35) scale(0.946 0.946)"><rect x="-240" y="-100.6211" width="480" height="201.2422" fill="#111"/></g><g data-id="media-04" data-z="78" data-occluded="false" transform="translate(510.72 278.2944) rotate(-0.9) scale(0.964 0.964)"><rect x="-108" y="-135" width="216" height="270" fill="#111"/></g><g data-id="media-03" data-z="79" data-occluded="false" transform="translate(495.36 274.1472) rotate(0.45) scale(0.982 0.982)"><rect x="-135" y="-135" width="270" height="270" fill="#111"/></g><g data-id="media-02" data-z="80" data-occluded="false" transform="translate(480 270) rotate(0) scale(1 1)"><rect x="-75.9375" y="-135" width="151.875" height="270" fill="#111"/></g></g><g transform="translate(640 0) scale(0.3333333333333333 0.3333333333333333)"><g data-id="media-06" data-z="76" data-occluded="false" transform="translate(535.0619 284.8667) rotate(-0.492) scale(0.9355 0.9355)"><rect x="-202.5" y="-135" width="405" height="270" fill="#111"/></g><g data-id="media-05" data-z="77" data-occluded="false" transform="translate(519.7019 280.7195) rotate(0.4157) scale(0.9535 0.9535)"><rect x="-240" y="-100.6211" width="480" height="201.2422" fill="#111"/></g><g data-id="media-04" data-z="78" data-occluded="false" transform="translate(504.3419 276.5723) rotate(-0.3394) scale(0.9715 0.9715)"><rect x="-108" y="-135" width="216" height="270" fill="#111"/></g><g data-id="media-03" data-z="79" data-occluded="false" transform="translate(488.9819 272.4251) rotate(0.2631) scale(0.9895 0.9895)"><rect x="-135" y="-135" width="270" height="270" fill="#111"/></g><g data-id="media-02" data-z="120" data-occluded="false" transform="translate(772.3153 259.6131) rotate(14.3186) scale(0.9683 0.9683)"><rect x="-75.9375" y="-135" width="151.875" height="270" fill="#111"/></g></g><g transform="translate(960 0) scale(0.3333333333333333 0.3333333333333333)"><g data-id="media-07" data-z="76" data-occluded="false" transform="translate(541.44 286.5888) rotate(-1.8) scale(0.928 0.928)"><rect x="-90" y="-135" width="180" height="270" fill="#111"/></g><g data-id="media-06" data-z="77" data-occluded="false" transform="translate(526.08 282.4416) rotate(1.35) scale(0.946 0.946)"><rect x="-202.5" y="-135" width="405" height="270" fill="#111"/></g><g data-id="media-05" data-z="78" data-occluded="false" transform="translate(510.72 278.2944) rotate(-0.9) scale(0.964 0.964)"><rect x="-240" y="-100.6211" width="480" height="201.2422" fill="#111"/></g><g data-id="media-04" data-z="79" data-occluded="false" transform="translate(495.36 274.1472) rotate(0.45) scale(0.982 0.982)"><rect x="-108" y="-135" width="216" height="270" fill="#111"/></g><g data-id="media-03" data-z="120" data-occluded="false" transform="translate(560.2138 178.0822) rotate(10.3422) scale(1 1)"><rect x="-135" y="-135" width="270" height="270" fill="#111"/></g></g><g transform="translate(0 180) scale(0.3333333333333333 0.3333333333333333)"><g data-id="media-08" data-z="76" data-occluded="false" transform="translate(541.44 286.5888) rotate(-1.8) scale(0.928 0.928)"><rect x="-168.75" y="-135" width="337.5" height="270" fill="#111"/></g><g data-id="media-07" data-z="77" data-occluded="false" transform="translate(526.08 282.4416) rotate(1.35) scale(0.946 0.946)"><rect x="-90" y="-135" width="180" height="270" fill="#111"/></g><g data-id="media-06" data-z="78" data-occluded="false" transform="translate(510.72 278.2944) rotate(-0.9) scale(0.964 0.964)"><rect x="-202.5" y="-135" width="405" height="270" fill="#111"/></g><g data-id="media-05" data-z="79" data-occluded="false" transform="translate(495.36 274.1472) rotate(0.45) scale(0.982 0.982)"><rect x="-240" y="-100.6211" width="480" height="201.2422" fill="#111"/></g><g data-id="media-04" data-z="120" data-occluded="false" transform="translate(479.979 270) rotate(-0.0018) scale(1 1)"><rect x="-108" y="-135" width="216" height="270" fill="#111"/></g></g><g transform="translate(320 180) scale(0.3333333333333333 0.3333333333333333)"><g data-id="media-04" data-z="76" data-occluded="false" transform="translate(541.3969 286.5888) rotate(-1.8) scale(0.928 0.928)"><rect x="-108" y="-135" width="216" height="270" fill="#111"/></g><g data-id="media-08" data-z="77" data-occluded="false" transform="translate(526.08 282.4416) rotate(1.35) scale(0.946 0.946)"><rect x="-168.75" y="-135" width="337.5" height="270" fill="#111"/></g><g data-id="media-07" data-z="78" data-occluded="false" transform="translate(510.72 278.2944) rotate(-0.9) scale(0.964 0.964)"><rect x="-90" y="-135" width="180" height="270" fill="#111"/></g><g data-id="media-06" data-z="79" data-occluded="false" transform="translate(495.36 274.1472) rotate(0.45) scale(0.982 0.982)"><rect x="-202.5" y="-135" width="405" height="270" fill="#111"/></g><g data-id="media-05" data-z="80" data-occluded="false" transform="translate(480 270) rotate(0) scale(1 1)"><rect x="-240" y="-100.6211" width="480" height="201.2422" fill="#111"/></g></g><g transform="translate(640 180) scale(0.3333333333333333 0.3333333333333333)"><g data-id="media-05" data-z="-20" data-occluded="false" transform="translate(551.395 286.9519) rotate(-1.0458) scale(0.9299 0.9299)"><rect x="-240" y="-100.6211" width="480" height="201.2422" fill="#111"/></g><g data-id="media-01" data-z="77" data-occluded="false" transform="translate(526.08 282.4416) rotate(1.35) scale(0.946 0.946)"><rect x="-240" y="-135" width="480" height="270" fill="#111"/></g><g data-id="media-08" data-z="78" data-occluded="false" transform="translate(510.72 278.2944) rotate(-0.9) scale(0.964 0.964)"><rect x="-168.75" y="-135" width="337.5" height="270" fill="#111"/></g><g data-id="media-07" data-z="79" data-occluded="false" transform="translate(495.36 274.1472) rotate(0.45) scale(0.982 0.982)"><rect x="-90" y="-135" width="180" height="270" fill="#111"/></g><g data-id="media-06" data-z="80" data-occluded="false" transform="translate(480 270) rotate(0) scale(1 1)"><rect x="-202.5" y="-135" width="405" height="270" fill="#111"/></g></g><g transform="translate(960 180) scale(0.3333333333333333 0.3333333333333333)"><g data-id="media-06" data-z="-20" data-occluded="true" transform="translate(604.8944 288.8835) rotate(3.0064) scale(0.94 0.94)"><rect x="-202.5" y="-135" width="405" height="270" fill="#111"/></g><g data-id="media-02" data-z="77" data-occluded="false" transform="translate(531.1989 283.8237) rotate(0.3002) scale(0.94 0.94)"><rect x="-75.9375" y="-135" width="151.875" height="270" fill="#111"/></g><g data-id="media-01" data-z="78" data-occluded="false" transform="translate(515.8389 279.6765) rotate(-0.1502) scale(0.958 0.958)"><rect x="-240" y="-135" width="480" height="270" fill="#111"/></g><g data-id="media-08" data-z="79" data-occluded="false" transform="translate(500.4789 275.5293) rotate(0.0001) scale(0.976 0.976)"><rect x="-168.75" y="-135" width="337.5" height="270" fill="#111"/></g><g data-id="media-07" data-z="80" data-occluded="false" transform="translate(485.1189 271.3821) rotate(0.15) scale(0.994 0.994)"><rect x="-90" y="-135" width="180" height="270" fill="#111"/></g></g><g transform="translate(0 360) scale(0.3333333333333333 0.3333333333333333)"><g data-id="media-03" data-z="76" data-occluded="false" transform="translate(541.4391 286.5886) rotate(-1.7998) scale(0.928 0.928)"><rect x="-135" y="-135" width="270" height="270" fill="#111"/></g><g data-id="media-02" data-z="77" data-occluded="false" transform="translate(526.0791 282.4414) rotate(1.3499) scale(0.946 0.946)"><rect x="-75.9375" y="-135" width="151.875" height="270" fill="#111"/></g><g data-id="media-01" data-z="78" data-occluded="false" transform="translate(510.7191 278.2942) rotate(-0.8999) scale(0.964 0.964)"><rect x="-240" y="-135" width="480" height="270" fill="#111"/></g><g data-id="media-08" data-z="79" data-occluded="false" transform="translate(495.3591 274.147) rotate(0.45) scale(0.982 0.982)"><rect x="-168.75" y="-135" width="337.5" height="270" fill="#111"/></g><g data-id="media-07" data-z="120" data-occluded="false" transform="translate(747.206 131.1369) rotate(18.1336) scale(1 1)"><rect x="-90" y="-135" width="180" height="270" fill="#111"/></g></g><g transform="translate(320 360) scale(0.3333333333333333 0.3333333333333333)"><g data-id="media-04" data-z="76" data-occluded="false" transform="translate(541.44 286.5888) rotate(-1.8) scale(0.928 0.928)"><rect x="-108" y="-135" width="216" height="270" fill="#111"/></g><g data-id="media-03" data-z="77" data-occluded="false" transform="translate(526.08 282.4416) rotate(1.35) scale(0.946 0.946)"><rect x="-135" y="-135" width="270" height="270" fill="#111"/></g><g data-id="media-02" data-z="78" data-occluded="false" transform="translate(510.72 278.2944) rotate(-0.9) scale(0.964 0.964)"><rect x="-75.9375" y="-135" width="151.875" height="270" fill="#111"/></g><g data-id="media-01" data-z="79" data-occluded="false" transform="translate(495.36 274.1472) rotate(0.45) scale(0.982 0.982)"><rect x="-240" y="-135" width="480" height="270" fill="#111"/></g><g data-id="media-08" data-z="120" data-occluded="false" transform="translate(459.0941 270) rotate(-1.7422) scale(1 1)"><rect x="-168.75" y="-135" width="337.5" height="270" fill="#111"/></g></g><g transform="translate(640 360) scale(0.3333333333333333 0.3333333333333333)"><g data-id="media-05" data-z="76" data-occluded="false" transform="translate(541.44 286.5888) rotate(-1.8) scale(0.928 0.928)"><rect x="-240" y="-100.6211" width="480" height="201.2422" fill="#111"/></g><g data-id="media-04" data-z="77" data-occluded="false" transform="translate(526.08 282.4416) rotate(1.35) scale(0.946 0.946)"><rect x="-108" y="-135" width="216" height="270" fill="#111"/></g><g data-id="media-03" data-z="78" data-occluded="false" transform="translate(510.72 278.2944) rotate(-0.9) scale(0.964 0.964)"><rect x="-135" y="-135" width="270" height="270" fill="#111"/></g><g data-id="media-02" data-z="79" data-occluded="false" transform="translate(495.36 274.1472) rotate(0.45) scale(0.982 0.982)"><rect x="-75.9375" y="-135" width="151.875" height="270" fill="#111"/></g><g data-id="media-01" data-z="80" data-occluded="false" transform="translate(480 270) rotate(0) scale(1 1)"><rect x="-240" y="-135" width="480" height="270" fill="#111"/></g></g><g transform="translate(960 360) scale(0.3333333333333333 0.3333333333333333)"></g></svg>