<svg xmlns="http://www.w3.org/2000/svg" width="960" height="540" viewBox="0 0 960 540" data-scene="hero-deck-object" data-phase="terminal"><rect width="100%" height="100%" fill="#e9e7df" data-reviewer-matte="true"/><g data-id="media-08" data-z="10" data-occluded="false" transform="translate(816 702) rotate(0) scale(1 1)"><g data-source-artwork="opaque"><rect x="-209.25" y="-167.4" width="418.5" height="334.8" fill="#817052"/><rect x="-182.466" y="-140.616" width="364.932" height="11.718000000000002" fill="#f6f2e8" opacity="0.9"/><circle cx="-27.102857142857143" cy="-22.599" r="60.264" fill="#1f2326" opacity="0.82"/><path d="M -182.466 140.616 H 182.466" stroke="#f6f2e8" stroke-width="8.2026"/><text x="-182.466" y="128.5632" font-family="sans-serif" font-size="23.436000000000003" fill="#f6f2e8">media-08</text></g></g><g data-id="media-01" data-z="52" data-occluded="false" transform="translate(954.24 720.9) rotate(2.8) scale(0.8599002113239684 0.862)"><g data-source-artwork="opaque"><rect x="-297.6" y="-167.4" width="595.2" height="334.8" fill="#c85f4b"/><rect x="-270.81600000000003" y="-140.616" width="541.6320000000001" height="11.718000000000002" fill="#f6f2e8" opacity="0.9"/><circle cx="101.18400000000001" cy="-2.5110000000000023" r="60.264" fill="#1f2326" opacity="0.82"/><path d="M -270.81600000000003 140.616 H 270.81600000000003" stroke="#f6f2e8" stroke-width="8.2026"/><text x="-270.81600000000003" y="128.5632" font-family="sans-serif" font-size="23.436000000000003" fill="#f6f2e8">media-01</text></g></g><g data-id="media-07" data-z="52" data-occluded="false" transform="translate(5.76 720.9) rotate(-2.8) scale(0.8599002113239684 0.862)"><g data-source-artwork="opaque"><rect x="-111.6" y="-167.4" width="223.2" height="334.8" fill="#b06e82"/><rect x="-93.744" y="-149.544" width="187.488" height="7.812" fill="#f6f2e8" opacity="0.9"/><circle cx="28.909714285714287" cy="-50.22" r="40.175999999999995" fill="#1f2326" opacity="0.82"/><path d="M -93.744 149.544 H 93.744" stroke="#f6f2e8" stroke-width="5.4684"/><text x="-93.744" y="141.5088" font-family="sans-serif" font-size="15.624" fill="#f6f2e8">media-07</text></g></g></svg>