<svg xmlns="http://www.w3.org/2000/svg" width="720" height="1280" viewBox="0 0 720 1280"><defs><linearGradient id="g0" x1="0" y1="0" x2="1" y2="1"><stop stop-color="#88b8e7"/><stop offset="1" stop-color="#5f20b6"/></linearGradient><linearGradient id="g1" x1="0" y1="0" x2="1" y2="1"><stop stop-color="#a388e7"/><stop offset="1" stop-color="#b62098"/></linearGradient><linearGradient id="g2" x1="0" y1="0" x2="1" y2="1"><stop stop-color="#e788e0"/><stop offset="1" stop-color="#b62023"/></linearGradient><linearGradient id="g3" x1="0" y1="0" x2="1" y2="1"><stop stop-color="#e78897"/><stop offset="1" stop-color="#b69320"/></linearGradient><linearGradient id="g4" x1="0" y1="0" x2="1" y2="1"><stop stop-color="#e7c488"/><stop offset="1" stop-color="#64b620"/></linearGradient><linearGradient id="g5" x1="0" y1="0" x2="1" y2="1"><stop stop-color="#bfe788"/><stop offset="1" stop-color="#20b652"/></linearGradient><linearGradient id="g6" x1="0" y1="0" x2="1" y2="1"><stop stop-color="#88e79b"/><stop offset="1" stop-color="#20a5b6"/></linearGradient></defs><rect width="100%" height="100%" fill="#dad4c7"/><g opacity="0" transform="translate(658.474097 938.258446) rotate(16.116938) scale(1)"><rect x="-109.3176" y="-388.6848" width="218.6352" height="388.6848" rx="14" fill="#f0ece1"/><rect x="-101.3176" y="-380.6848" width="202.6352" height="372.6848" rx="9" fill="url(#g0)"/><path d="M -83.081376 -303.174144 C -26.236223999999993 -373.137408,48.09974399999999 -213.77664,83.081376 -318.721536 L 74.33596799999998 -101.05804799999999 C 13.11811200000001 -31.094784000000004,-39.354336 -174.90815999999998,-83.081376 -62.18956800000001Z" fill="none" stroke="#fff" stroke-width="3.9354335999999996"/><rect x="-91.826784" y="-318.721536" width="96.199488" height="27.207936000000004" fill="#14212c" opacity=".84"/><text x="-91.826784" y="-38.86847999999998" font-family="monospace" font-size="12.024936" font-weight="700" fill="#fff">NARROW</text></g><g opacity="0" transform="translate(609.737232 925.405395) rotate(13.430782) scale(1)"><rect x="-109.3176" y="-145.7568" width="218.6352" height="145.7568" rx="14" fill="#f0ece1"/><rect x="-101.3176" y="-137.7568" width="202.6352" height="129.7568" rx="9" fill="url(#g1)"/><path d="M -83.081376 -113.690304 C -26.236223999999993 -139.926528,48.09974399999999 -80.16624,83.081376 -119.520576 L 74.33596799999998 -37.896767999999994 C 13.11811200000001 -11.660543999999987,-39.354336 -65.59056,-83.081376 -23.321088000000003Z" fill="none" stroke="#fff" stroke-width="2.6236224"/><rect x="-91.826784" y="-119.520576" width="96.199488" height="10.202976000000001" fill="#14212c" opacity=".84"/><text x="-91.826784" y="-14.575680000000006" font-family="monospace" font-size="12.024936" font-weight="700" fill="#fff">ORDER</text></g><g opacity="0" transform="translate(560.451557 914.850525) rotate(10.744626) scale(1)"><rect x="-109.3176" y="-273.294" width="218.6352" height="273.294" rx="14" fill="#f0ece1"/><rect x="-101.3176" y="-265.294" width="202.6352" height="257.294" rx="9" fill="url(#g2)"/><path d="M -83.081376 -213.16931999999997 C -26.236223999999993 -262.36224,48.09974399999999 -150.31169999999997,83.081376 -224.10108 L 74.33596799999998 -71.05644000000001 C 13.11811200000001 -21.863519999999994,-39.354336 -122.98229999999998,-83.081376 -43.72704000000002Z" fill="none" stroke="#fff" stroke-width="3.9354335999999996"/><rect x="-91.826784" y="-224.10108" width="96.199488" height="19.130580000000002" fill="#14212c" opacity=".84"/><text x="-91.826784" y="-27.329399999999993" font-family="monospace" font-size="12.024936" font-weight="700" fill="#fff">PORTRAIT</text></g><g opacity="0" transform="translate(510.725382 906.61703) rotate(8.058469) scale(1)"><rect x="-109.3176" y="-122.9823" width="218.6352" height="122.9823" rx="14" fill="#f0ece1"/><rect x="-101.3176" y="-114.9823" width="202.6352" height="106.9823" rx="9" fill="url(#g3)"/><path d="M -83.081376 -95.926194 C -26.236223999999993 -118.063008,48.09974399999999 -67.640265,83.081376 -100.845486 L 74.33596799999998 -31.975398 C 13.11811200000001 -9.838583999999997,-39.354336 -55.342034999999996,-83.081376 -19.67716800000001Z" fill="none" stroke="#fff" stroke-width="2.2136813999999996"/><rect x="-91.826784" y="-100.845486" width="96.199488" height="8.608761000000001" fill="#14212c" opacity=".84"/><text x="-91.826784" y="-12.298230000000004" font-family="monospace" font-size="12.024936" font-weight="700" fill="#fff">FRAME</text></g><g opacity="1" transform="translate(460.66798 900.723005) rotate(5.372313) scale(1)"><rect x="-109.3176" y="-218.6352" width="218.6352" height="218.6352" rx="14" fill="#f0ece1"/><rect x="-101.3176" y="-210.6352" width="202.6352" height="202.6352" rx="9" fill="url(#g4)"/><path d="M -83.081376 -170.535456 C -26.236223999999993 -209.889792,48.09974399999999 -120.24936,83.081376 -179.280864 L 74.33596799999998 -56.84515200000001 C 13.11811200000001 -17.490815999999995,-39.354336 -98.38583999999999,-83.081376 -34.98163200000002Z" fill="none" stroke="#fff" stroke-width="3.9354335999999996"/><rect x="-91.826784" y="-179.280864" width="96.199488" height="15.304464000000001" fill="#14212c" opacity=".84"/><text x="-91.826784" y="-21.863519999999994" font-family="monospace" font-size="12.024936" font-weight="700" fill="#fff">SQUARE</text></g><g opacity="1" transform="translate(410.389357 897.1814) rotate(2.686156) scale(1)"><rect x="-109.3176" y="-291.5136" width="218.6352" height="291.5136" rx="14" fill="#f0ece1"/><rect x="-101.3176" y="-283.5136" width="202.6352" height="275.5136" rx="9" fill="url(#g5)"/><path d="M -83.081376 -227.380608 C -26.236223999999993 -279.853056,48.09974399999999 -160.33248,83.081376 -239.041152 L 74.33596799999998 -75.79353599999999 C 13.11811200000001 -23.321087999999975,-39.354336 -131.18112,-83.081376 -46.642176000000006Z" fill="none" stroke="#fff" stroke-width="3.9354335999999996"/><rect x="-91.826784" y="-239.041152" width="96.199488" height="20.405952000000003" fill="#14212c" opacity=".84"/><text x="-91.826784" y="-29.15136000000001" font-family="monospace" font-size="12.024936" font-weight="700" fill="#fff">TALL</text></g><g opacity="1" transform="translate(360 773.6) rotate(0) scale(1.07)"><rect x="-109.3176" y="-91.479163" width="218.6352" height="91.479163" rx="14" fill="#f0ece1"/><rect x="-101.3176" y="-83.479163" width="202.6352" height="75.479163" rx="9" fill="url(#g6)"/><path d="M -83.081376 -71.35374714 C -26.236223999999993 -87.81999648,48.09974399999999 -50.313539649999996,83.081376 -75.01291366 L 74.33596799999998 -23.784582380000003 C 13.11811200000001 -7.318333039999999,-39.354336 -41.16562335,-83.081376 -14.636666079999998Z" fill="none" stroke="#fff" stroke-width="2"/><rect x="-91.826784" y="-75.01291366" width="96.199488" height="6.403541410000001" fill="#14212c" opacity=".84"/><text x="-91.826784" y="-9.147916299999991" font-family="monospace" font-size="12.024936" font-weight="700" fill="#fff">WIDE</text></g></svg>